<?xml version="1.0" encoding="UTF-8"?>
<svg version="1.1" xmlns="http://www.w3.org/2000/svg" width="100" height="100">
<path d="M0 0 C2.34140978 0 4.68345102 -0.02384131 7.0234375 -0.10546875 C18.48532731 -0.38600451 18.48532731 -0.38600451 23 3 C24.18890346 4.4780962 25.37583797 5.95836093 26.5234375 7.46875 C28.31768093 9.32944689 30.12530859 10.23050392 32.4375 11.375 C38.21421906 14.34533301 41.94593868 18.83781603 44 25 C44.68858108 37.74675676 44.68858108 37.74675676 42.875 43.1875 C42.58625 44.115625 42.2975 45.04375 42 46 C42.66 46.99 43.32 47.98 44 49 C44.71305518 53.68970905 45.36780776 58.9363598 42.65625 63.02734375 C41.5585098 64.12767296 40.44650388 65.21396491 39.3203125 66.28515625 C37.20477679 69.03284908 37.80125228 71.59428785 38.0390625 74.91796875 C38 77 38 77 36.25 79.9375 C33.13338902 82.7943934 31.22807815 83.87207519 27 84.3125 C23.11497904 85.2028173 22.30352411 86.85185038 20 90 C16.81065063 92.06534959 14.25573624 92.24424876 10.5 92.1875 C9.5615625 92.18105469 8.623125 92.17460938 7.65625 92.16796875 C5 92 5 92 2.78125 91.42578125 C0.91054712 90.77685093 0.91054712 90.77685093 -1 92 C-5.87695917 92.40837661 -10.44274485 92.64885631 -15 90.75 C-17 89 -17 89 -18.25 87.0625 C-20.24275916 84.71389099 -21.67988267 84.15988697 -24.5 83 C-30.62062102 80.40246815 -30.62062102 80.40246815 -32 77 C-31.99167899 75.49944448 -31.94614214 73.99889123 -31.875 72.5 C-31.73148372 70.15290959 -31.73148372 70.15290959 -32 68 C-34.24496542 65.6706919 -34.24496542 65.6706919 -37 64 C-40.88037979 59.45058921 -40.39820073 54.67214822 -40 49 C-39.66666667 46.66666667 -39.33333333 44.33333333 -39 42 C-39.495 40.515 -39.495 40.515 -40 39 C-40.75148475 30.04659602 -40.96538246 22.24017652 -35 15 C-32.60256422 12.72243601 -30.35386427 11.20347196 -27.5 9.5625 C-24.85106351 8.05163345 -24.85106351 8.05163345 -22.625 5.5 C-15.80419774 -0.99600215 -8.95660419 -0.31611544 0 0 Z M-18 8 C-18.61875 8.78375 -19.2375 9.5675 -19.875 10.375 C-21.90520441 12.88289956 -23.28017157 13.9042335 -26 15.5 C-30.5117447 18.17175943 -33.31296621 20.93889863 -35 26 C-35.11953769 27.97654185 -35.17526196 29.95738456 -35.1875 31.9375 C-35.20167969 32.97777344 -35.21585938 34.01804687 -35.23046875 35.08984375 C-35.00392282 37.95046613 -34.47733619 39.57670151 -33 42 C-29.58357241 42.25015873 -29.58357241 42.25015873 -26 42 C-25.34 41.01 -24.68 40.02 -24 39 C-21.2572492 38.52885262 -18.80441103 38.82194216 -16 39 C-15 40 -15 40 -14.8671875 41.8125 C-14.86976562 42.534375 -14.87234375 43.25625 -14.875 44 C-14.87113281 45.0828125 -14.87113281 45.0828125 -14.8671875 46.1875 C-15 48 -15 48 -16 49 C-21.8410596 49.37086093 -21.8410596 49.37086093 -24 49 C-24.66 48.01 -25.32 47.02 -26 46 C-28.95746492 45.41654524 -28.95746492 45.41654524 -32 46 C-34.96552094 48.37241675 -35.02229904 50.15609329 -35.5625 53.9375 C-35.47532464 56.39676282 -35.28760743 57.6202465 -33.79296875 59.59375 C-31.13156749 61.9115273 -28.53631811 63.5919633 -25 64 C-25.33 64.70125 -25.66 65.4025 -26 66.125 C-27.13288904 69.382056 -27.43698184 71.57697562 -27 75 C-24.75106622 78.23846464 -23.27791159 78.92686537 -19.4375 79.9375 C-16 81 -16 81 -14.1875 83.5625 C-13.795625 84.366875 -13.40375 85.17125 -13 86 C-10.59454362 87.20272819 -9.05003047 87.10071472 -6.375 87.0625 C-5.55773437 87.05347656 -4.74046875 87.04445313 -3.8984375 87.03515625 C-3.27195312 87.02355469 -2.64546875 87.01195313 -2 87 C-0.18640687 83.11865969 0.2373701 80.09306483 0.1953125 75.82421875 C0.18564453 74.08881836 0.18564453 74.08881836 0.17578125 72.31835938 C0.15902344 71.12017578 0.14226563 69.92199219 0.125 68.6875 C0.11597656 67.46998047 0.10695312 66.25246094 0.09765625 64.99804688 C0.07413037 61.99849726 0.04125653 58.99934956 0 56 C-3.3 56 -6.6 56 -10 56 C-10.0928125 57.918125 -10.0928125 57.918125 -10.1875 59.875 C-10.23970703 60.95394531 -10.23970703 60.95394531 -10.29296875 62.0546875 C-10.19628906 62.69664063 -10.09960938 63.33859375 -10 64 C-9.01 64.66 -8.02 65.32 -7 66 C-6.52885262 68.7427508 -6.82194216 71.19558897 -7 74 C-8 75 -8 75 -9.8125 75.1328125 C-10.534375 75.13023438 -11.25625 75.12765625 -12 75.125 C-12.721875 75.12757812 -13.44375 75.13015625 -14.1875 75.1328125 C-16 75 -16 75 -17 74 C-17.37086093 68.1589404 -17.37086093 68.1589404 -17 66 C-16.01 65.34 -15.02 64.68 -14 64 C-13.63501966 61.10391601 -13.63501966 61.10391601 -13.8125 57.875 C-13.874375 55.93625 -13.93625 53.9975 -14 52 C-9.38 52 -4.76 52 0 52 C0 46.72 0 41.44 0 36 C-3.3 36 -6.6 36 -10 36 C-10 32.7 -10 29.4 -10 26 C-11.32 26 -12.64 26 -14 26 C-14.66 26.99 -15.32 27.98 -16 29 C-18.7427508 29.47114738 -21.19558897 29.17805784 -24 29 C-25 28 -25 28 -25.1328125 26.1875 C-25.13023438 25.465625 -25.12765625 24.74375 -25.125 24 C-25.12757812 23.278125 -25.13015625 22.55625 -25.1328125 21.8125 C-25 20 -25 20 -24 19 C-18.1589404 18.62913907 -18.1589404 18.62913907 -16 19 C-15.01 20.485 -15.01 20.485 -14 22 C-12.02252878 22.36297936 -12.02252878 22.36297936 -9.875 22.1875 C-8.59625 22.125625 -7.3175 22.06375 -6 22 C-6 25.3 -6 28.6 -6 32 C-4.02 32 -2.04 32 0 32 C0.02716089 28.97910522 0.04691657 25.95845871 0.0625 22.9375 C0.07506836 21.66616211 0.07506836 21.66616211 0.08789062 20.36914062 C0.10680891 15.46930512 -0.08464736 10.82000376 -1 6 C-2.63012838 4.36987162 -4.44437445 4.79023544 -6.6875 4.75 C-11.20680187 4.80802242 -14.20022622 5.37634667 -18 8 Z M5 6 C3.99418038 11.36437132 3.88883662 16.55299453 4 22 C6.62561109 22.08074203 9.24875676 22.1403623 11.875 22.1875 C12.62136719 22.21263672 13.36773437 22.23777344 14.13671875 22.26367188 C16.56221828 22.3298764 16.56221828 22.3298764 20 22 C20.66 21.01 21.32 20.02 22 19 C24.7427508 18.52885262 27.19558897 18.82194216 30 19 C31 20 31 20 31.1328125 21.8125 C31.13023438 22.534375 31.12765625 23.25625 31.125 24 C31.12886719 25.0828125 31.12886719 25.0828125 31.1328125 26.1875 C31 28 31 28 30 29 C24.1589404 29.37086093 24.1589404 29.37086093 22 29 C21.34 28.01 20.68 27.02 20 26 C14.72 26 9.44 26 4 26 C4 39.86 4 53.72 4 68 C6.64 68 9.28 68 12 68 C12.66 67.01 13.32 66.02 14 65 C16.7427508 64.52885262 19.19558897 64.82194216 22 65 C23 66 23 66 23.1328125 67.8125 C23.13023438 68.534375 23.12765625 69.25625 23.125 70 C23.12886719 71.0828125 23.12886719 71.0828125 23.1328125 72.1875 C23 74 23 74 22 75 C16.1589404 75.37086093 16.1589404 75.37086093 14 75 C13.34 74.01 12.68 73.02 12 72 C10.02252878 71.63702064 10.02252878 71.63702064 7.875 71.8125 C6.59625 71.874375 5.3175 71.93625 4 72 C3.61041465 79.74338636 3.61041465 79.74338636 6 87 C11.95165883 87.44682905 11.95165883 87.44682905 17.5 85.6875 C19.23115403 83.96307007 19.23115403 83.96307007 20 81 C22.1796875 80.12109375 22.1796875 80.12109375 24.875 79.4375 C28.18029394 78.58467634 30.10972477 77.92685016 33 76 C33.32261499 74.06218919 33.32261499 74.06218919 33.07421875 71.8671875 C33.02612061 71.14128418 32.97802246 70.41538086 32.9284668 69.66748047 C32.84894775 68.74596191 32.76942871 67.82444336 32.6875 66.875 C32.460625 63.94625 32.23375 61.0175 32 58 C26.06 58 20.12 58 14 58 C14.09765625 55.4609375 14.1953125 52.921875 14.29296875 50.3828125 C14.19628906 49.59648438 14.09960938 48.81015625 14 48 C13.01 47.34 12.02 46.68 11 46 C10.52885262 43.2572492 10.82194216 40.80441103 11 38 C12 37 12 37 13.8125 36.8671875 C14.534375 36.86976562 15.25625 36.87234375 16 36.875 C16.721875 36.87242188 17.44375 36.86984375 18.1875 36.8671875 C20 37 20 37 21 38 C21.37086093 43.8410596 21.37086093 43.8410596 21 46 C20.01 46.66 19.02 47.32 18 48 C18 49.98 18 51.96 18 54 C23.94 54 29.88 54 36 54 C36 56.64 36 59.28 36 62 C37.66641006 61.009245 37.66641006 61.009245 39 59 C39.27912647 56.06917207 39.47226924 53.84527641 39 51 C38.443125 50.360625 37.88625 49.72125 37.3125 49.0625 C36.879375 48.381875 36.44625 47.70125 36 47 C36.46875 45.18359375 36.46875 45.18359375 37.3125 43 C39.46242867 37.34475284 39.76159266 31.99005465 39 26 C36.67760934 21.08725053 33.30940931 18.16609664 29 15 C28.13375 14.690625 27.2675 14.38125 26.375 14.0625 C23.01051237 12.55733448 21.96692888 10.0455673 20 7 C16.91757056 4.983019 14.4534367 4.7533415 10.8125 4.8125 C9.93207031 4.81894531 9.05164062 4.82539063 8.14453125 4.83203125 C6.01852688 4.76489536 6.01852688 4.76489536 5 6 Z M-21 23 C-21 23.66 -21 24.32 -21 25 C-20.34 25 -19.68 25 -19 25 C-19 24.34 -19 23.68 -19 23 C-19.66 23 -20.32 23 -21 23 Z M25 23 C25 23.66 25 24.32 25 25 C25.66 25 26.32 25 27 25 C27 24.34 27 23.68 27 23 C26.34 23 25.68 23 25 23 Z M15 41 C15 41.66 15 42.32 15 43 C15.66 43 16.32 43 17 43 C17 42.34 17 41.68 17 41 C16.34 41 15.68 41 15 41 Z M-21 43 C-21 43.66 -21 44.32 -21 45 C-20.34 45 -19.68 45 -19 45 C-19 44.34 -19 43.68 -19 43 C-19.66 43 -20.32 43 -21 43 Z M-13 69 C-13 69.66 -13 70.32 -13 71 C-12.34 71 -11.68 71 -11 71 C-11 70.34 -11 69.68 -11 69 C-11.66 69 -12.32 69 -13 69 Z M17 69 C17 69.66 17 70.32 17 71 C17.66 71 18.32 71 19 71 C19 70.34 19 69.68 19 69 C18.34 69 17.68 69 17 69 Z " fill="#191919" transform="translate(48,4)"/>
</svg>
