<?xml version="1.0" encoding="UTF-8"?>
<svg version="1.1" xmlns="http://www.w3.org/2000/svg" width="100" height="100">
<path d="M0 0 C1.68222656 -0.00773438 1.68222656 -0.00773438 3.3984375 -0.015625 C6.625 0.25 6.625 0.25 9.1328125 1.26953125 C13.17788734 2.86093217 17.18704678 2.23242533 21.46875 2.02734375 C25.90522283 2.34031275 28.43938303 3.98261635 31.4375 7.1875 C33.55324012 9.18234069 35.08081957 10.00783441 37.6875 11.1875 C41.4166768 12.9351216 42.65780121 14.59663081 44.625 18.25 C46.25995707 19.30104383 47.92383624 20.30988318 49.625 21.25 C51.43715899 24.87431797 50.93811698 29.07104538 51 33.0625 C51.03738281 33.96548828 51.07476562 34.86847656 51.11328125 35.79882812 C51.17427303 40.4104846 51.16292105 42.54239916 48.296875 46.3125 C45.44386443 48.38134977 42.99879428 49.2965364 39.625 50.25 C38.635 50.91 37.645 51.57 36.625 52.25 C34.8615625 52.745 34.8615625 52.745 33.0625 53.25 C29.59426675 53.95977006 29.59426675 53.95977006 27.625 56.25 C25.4609375 56.4453125 25.4609375 56.4453125 23 56.375 C22.18273437 56.35695312 21.36546875 56.33890625 20.5234375 56.3203125 C19.89695312 56.29710937 19.27046875 56.27390625 18.625 56.25 C18.625 56.91 18.625 57.57 18.625 58.25 C15.39708445 60.4019437 14.34099191 60.45086443 10.625 60.25 C10.5321875 61.301875 10.5321875 61.301875 10.4375 62.375 C9.32622228 66.30721349 7.95140803 68.90194727 4.625 71.25 C1.07682898 72.42433556 -2.44375138 73.31384101 -6.09765625 74.09765625 C-9.98392816 75.46410466 -11.19623057 76.80663013 -13.375 80.25 C-14.44430842 82.42889474 -14.44430842 82.42889474 -15.125 84.5625 C-15.5375 85.779375 -15.95 86.99625 -16.375 88.25 C-20.665 88.25 -24.955 88.25 -29.375 88.25 C-28.8528626 81.37519084 -28.02079346 74.94289338 -26.375 68.25 C-28.37332102 67.2396632 -30.37322356 66.2508115 -32.41015625 65.3203125 C-39.56018255 61.98638887 -39.56018255 61.98638887 -41.375 58.25 C-41.70833333 55.91666667 -42.04166667 53.58333333 -42.375 51.25 C-42.890625 50.63125 -43.40625 50.0125 -43.9375 49.375 C-46.23749027 45.97501438 -45.75706746 42.23966601 -45.375 38.25 C-45.045 37.26 -44.715 36.27 -44.375 35.25 C-44.705 34.92 -45.035 34.59 -45.375 34.25 C-46.18931767 26.52964206 -46.18931767 26.52964206 -44.0625 23.1875 C-43.505625 22.548125 -42.94875 21.90875 -42.375 21.25 C-41.90932861 19.94722885 -41.47488286 18.63310701 -41.0625 17.3125 C-39.4909833 12.939938 -37.30724643 10.82108421 -33.375 8.25 C-31.04951993 7.55643577 -28.71619555 6.88850788 -26.375 6.25 C-25.2921875 5.198125 -25.2921875 5.198125 -24.1875 4.125 C-20.195028 1.463352 -16.80492009 2.03581506 -12.1171875 2.3046875 C-7.72903101 2.21717441 -4.80524046 -0.02199195 0 0 Z M8.625 14.25 C8.625 15.9 8.625 17.55 8.625 19.25 C5.95833333 19.25 3.29166667 19.25 0.625 19.25 C0.955 21.56 1.285 23.87 1.625 26.25 C-0.025 26.25 -1.675 26.25 -3.375 26.25 C-3.375 27.57 -3.375 28.89 -3.375 30.25 C-1.725 30.25 -0.075 30.25 1.625 30.25 C1.625 32.91666667 1.625 35.58333333 1.625 38.25 C5.09 37.755 5.09 37.755 8.625 37.25 C8.625 38.57 8.625 39.89 8.625 41.25 C9.945 41.25 11.265 41.25 12.625 41.25 C12.625 39.93 12.625 38.61 12.625 37.25 C15.29166667 37.25 17.95833333 37.25 20.625 37.25 C20.295 34.94 19.965 32.63 19.625 30.25 C21.275 30.25 22.925 30.25 24.625 30.25 C24.625 28.93 24.625 27.61 24.625 26.25 C22.975 26.25 21.325 26.25 19.625 26.25 C19.625 23.58333333 19.625 20.91666667 19.625 18.25 C17.315 18.58 15.005 18.91 12.625 19.25 C12.625 17.6 12.625 15.95 12.625 14.25 C11.305 14.25 9.985 14.25 8.625 14.25 Z M-15.375 31.25 C-15.375 32.57 -15.375 33.89 -15.375 35.25 C-18.04166667 35.25 -20.70833333 35.25 -23.375 35.25 C-23.045 37.56 -22.715 39.87 -22.375 42.25 C-24.025 42.25 -25.675 42.25 -27.375 42.25 C-27.375 43.57 -27.375 44.89 -27.375 46.25 C-25.725 46.25 -24.075 46.25 -22.375 46.25 C-22.375 48.91666667 -22.375 51.58333333 -22.375 54.25 C-18.91 53.755 -18.91 53.755 -15.375 53.25 C-15.375 54.9 -15.375 56.55 -15.375 58.25 C-14.055 58.25 -12.735 58.25 -11.375 58.25 C-11.375 56.6 -11.375 54.95 -11.375 53.25 C-8.70833333 53.25 -6.04166667 53.25 -3.375 53.25 C-3.705 50.94 -4.035 48.63 -4.375 46.25 C-2.725 46.25 -1.075 46.25 0.625 46.25 C0.625 44.93 0.625 43.61 0.625 42.25 C-1.025 42.25 -2.675 42.25 -4.375 42.25 C-4.375 39.58333333 -4.375 36.91666667 -4.375 34.25 C-6.685 34.58 -8.995 34.91 -11.375 35.25 C-11.375 33.93 -11.375 32.61 -11.375 31.25 C-12.695 31.25 -14.015 31.25 -15.375 31.25 Z " fill="#191919" transform="translate(47.375,5.75)"/>
<path d="M0 0 C0.70125 0.00515625 1.4025 0.0103125 2.125 0.015625 C2.82625 0.01046875 3.5275 0.0053125 4.25 0 C6.125 0.265625 6.125 0.265625 8.125 2.265625 C8.390625 4.140625 8.390625 4.140625 8.375 6.265625 C8.38015625 6.966875 8.3853125 7.668125 8.390625 8.390625 C8.125 10.265625 8.125 10.265625 6.125 12.265625 C4.25 12.53125 4.25 12.53125 2.125 12.515625 C1.42375 12.52078125 0.7225 12.5259375 0 12.53125 C-1.875 12.265625 -1.875 12.265625 -3.875 10.265625 C-4.140625 8.390625 -4.140625 8.390625 -4.125 6.265625 C-4.13015625 5.564375 -4.1353125 4.863125 -4.140625 4.140625 C-3.75603481 1.4258707 -2.7147543 0.38459019 0 0 Z " fill="#191919" transform="translate(31.875,43.734375)"/>
<path d="M0 0 C0.70125 0.00515625 1.4025 0.0103125 2.125 0.015625 C2.82625 0.01046875 3.5275 0.0053125 4.25 0 C6.125 0.265625 6.125 0.265625 8.125 2.265625 C8.390625 4.140625 8.390625 4.140625 8.375 6.265625 C8.38015625 6.966875 8.3853125 7.668125 8.390625 8.390625 C8.125 10.265625 8.125 10.265625 6.125 12.265625 C4.25 12.53125 4.25 12.53125 2.125 12.515625 C1.42375 12.52078125 0.7225 12.5259375 0 12.53125 C-1.875 12.265625 -1.875 12.265625 -3.875 10.265625 C-4.140625 8.390625 -4.140625 8.390625 -4.125 6.265625 C-4.13015625 5.564375 -4.1353125 4.863125 -4.140625 4.140625 C-3.75603481 1.4258707 -2.7147543 0.38459019 0 0 Z " fill="#191919" transform="translate(55.875,27.734375)"/>
</svg>
